<svg width="29" height="24" viewBox="0 0 29 24" fill="none" xmlns="http://www.w3.org/2000/svg">
<path d="M0.839364 10.9393C0.253578 11.5251 0.253578 12.4749 0.839364 13.0607L10.3853 22.6066C10.9711 23.1924 11.9208 23.1924 12.5066 22.6066C13.0924 22.0208 13.0924 21.0711 12.5066 20.4853L4.02134 12L12.5066 3.51472C13.0924 2.92893 13.0924 1.97919 12.5066 1.3934C11.9208 0.807611 10.9711 0.807611 10.3853 1.3934L0.839364 10.9393ZM8.83936 10.9393C8.25358 11.5251 8.25358 12.4749 8.83936 13.0607L18.3853 22.6066C18.9711 23.1924 19.9208 23.1924 20.5066 22.6066C21.0924 22.0208 21.0924 21.0711 20.5066 20.4853L12.0213 12L20.5066 3.51472C21.0924 2.92893 21.0924 1.97919 20.5066 1.3934C19.9208 0.807611 18.9711 0.807611 18.3853 1.3934L8.83936 10.9393ZM16.8394 10.9393C16.2536 11.5251 16.2536 12.4749 16.8394 13.0607L26.3853 22.6066C26.9711 23.1924 27.9208 23.1924 28.5066 22.6066C29.0924 22.0208 29.0924 21.0711 28.5066 20.4853L20.0213 12L28.5066 3.51472C29.0924 2.92893 29.0924 1.97919 28.5066 1.3934C27.9208 0.807611 26.9711 0.807611 26.3853 1.3934L16.8394 10.9393ZM3.90002 10.5H1.90002V13.5H3.90002V10.5ZM11.9 10.5H9.90002V13.5H11.9V10.5ZM19.9 10.5H17.9V13.5H19.9V10.5Z" fill="black"/>
</svg>
