<svg width="42" height="26" viewBox="0 0 42 26" fill="none" xmlns="http://www.w3.org/2000/svg">
<path d="M10 7C10 9.76142 7.76142 12 5 12C2.23858 12 0 9.76142 0 7C0 4.23858 2.23858 2 5 2C7.76142 2 10 4.23858 10 7Z" fill="black"/>
<path d="M20 13C20 14.6569 18.6569 16 17 16C15.3431 16 14 14.6569 14 13C14 11.3431 15.3431 10 17 10C18.6569 10 20 11.3431 20 13Z" fill="black" fill-opacity="0.8"/>
<path d="M30 21C30 23.7614 27.7614 26 25 26C22.2386 26 20 23.7614 20 21C20 18.2386 22.2386 16 25 16C27.7614 16 30 18.2386 30 21Z" fill="black" fill-opacity="0.6"/>
<path d="M38 7C38 9.76142 35.7614 12 33 12C30.2386 12 28 9.76142 28 7C28 4.23858 30.2386 2 33 2C35.7614 2 38 4.23858 38 7Z" fill="black" fill-opacity="0.9"/>
</svg>
