<svg width="42" height="26" viewBox="0 0 42 26" fill="none" xmlns="http://www.w3.org/2000/svg">
<path d="M8 3.5C8 2.67157 8.67157 2 9.5 2H32.5C33.3284 2 34 2.67157 34 3.5C34 4.32843 33.3284 5 32.5 5H9.5C8.67157 5 8 4.32843 8 3.5Z" fill="black"/>
<path d="M8 21.5C8 20.6716 8.67157 20 9.5 20H32.5C33.3284 20 34 20.6716 34 21.5C34 22.3284 33.3284 23 32.5 23H9.5C8.67157 23 8 22.3284 8 21.5Z" fill="black" fill-opacity="0.6"/>
<path d="M8 15.5C8 14.6716 8.67157 14 9.5 14H32.5C33.3284 14 34 14.6716 34 15.5C34 16.3284 33.3284 17 32.5 17H9.5C8.67157 17 8 16.3284 8 15.5Z" fill="black" fill-opacity="0.8"/>
<path d="M8 9.5C8 8.67157 8.67157 8 9.5 8H32.5C33.3284 8 34 8.67157 34 9.5C34 10.3284 33.3284 11 32.5 11H9.5C8.67157 11 8 10.3284 8 9.5Z" fill="black" fill-opacity="0.9"/>
</svg>
