<svg width="43" height="42" viewBox="0 0 43 42" fill="none" xmlns="http://www.w3.org/2000/svg">
<path d="M17.7 4.2V14.4828C17.7 15.7625 16.6626 16.8 15.3828 16.8H5.10002C2.78043 16.8 0.900024 18.6804 0.900024 21C0.900024 23.3196 2.78043 25.2 5.10003 25.2H15.3828C16.6626 25.2 17.7 26.2375 17.7 27.5172V37.8C17.7 40.1196 19.5804 42 21.9 42C24.2196 42 26.1 40.1196 26.1 37.8V27.5172C26.1 26.2375 27.1375 25.2 28.4173 25.2H38.7C41.0196 25.2 42.9 23.3196 42.9 21C42.9 18.6804 41.0196 16.8 38.7 16.8H28.4173C27.1375 16.8 26.1 15.7625 26.1 14.4828V4.2C26.1 1.8804 24.2196 0 21.9 0C19.5804 0 17.7 1.88041 17.7 4.2Z" fill="black"/>
</svg>
