<svg width="40" height="42" viewBox="0 0 40 42" fill="none" xmlns="http://www.w3.org/2000/svg">
<path d="M21.4562 0C23.0443 0 24.4822 0.882 25.2763 2.184C25.6626 2.814 25.9201 3.591 25.8557 4.41C25.8128 5.04 26.0059 5.67 26.3493 6.258C27.4438 8.043 29.8689 8.715 31.7575 7.707C33.8822 6.489 36.5648 7.224 37.7881 9.303L39.226 11.781C40.4707 13.86 39.784 16.527 37.6379 17.724C35.8137 18.795 35.1698 21.168 36.2643 22.974C36.6077 23.541 36.994 24.024 37.5949 24.318C38.3461 24.717 38.9255 25.347 39.3333 25.977C40.1273 27.279 40.063 28.875 39.2904 30.282L37.7881 32.802C36.994 34.146 35.5132 34.986 33.9895 34.986C33.2383 34.986 32.4013 34.776 31.7146 34.356C31.1566 33.999 30.5128 33.873 29.826 33.873C27.7014 33.873 25.9201 35.616 25.8557 37.695C25.8557 40.11 23.8813 42 21.4133 42H18.4945C16.0051 42 14.0306 40.11 14.0306 37.695C13.9877 35.616 12.2064 33.873 10.0818 33.873C9.37357 33.873 8.72974 33.999 8.19321 34.356C7.50646 34.776 6.64801 34.986 5.91833 34.986C4.37314 34.986 2.89232 34.146 2.09826 32.802L0.617442 30.282C-0.176619 28.917 -0.219542 27.279 0.574519 25.977C0.917897 25.347 1.56173 24.717 2.29141 24.318C2.89232 24.024 3.27862 23.541 3.64346 22.974C4.71651 21.168 4.07268 18.795 2.24849 17.724C0.123836 16.527 -0.562919 13.86 0.660364 11.781L2.09826 9.303C3.343 7.224 6.00418 6.489 8.15029 7.707C10.0174 8.715 12.4425 8.043 13.537 6.258C13.8804 5.67 14.0736 5.04 14.0306 4.41C13.9877 3.591 14.2238 2.814 14.6315 2.184C15.4256 0.882 16.8635 0.042 18.4302 0H21.4562ZM19.9754 15.078C16.606 15.078 13.8804 17.724 13.8804 21.021C13.8804 24.318 16.606 26.943 19.9754 26.943C23.3448 26.943 26.0059 24.318 26.0059 21.021C26.0059 17.724 23.3448 15.078 19.9754 15.078Z" fill="black"/>
</svg>
