<svg width="41" height="44" viewBox="0 0 41 44" fill="none" xmlns="http://www.w3.org/2000/svg">
<path d="M33.3999 13.6C36.8793 13.6 39.6999 10.7794 39.6999 7.3C39.6999 3.82061 36.8793 1 33.3999 1C29.9205 1 27.0999 3.82061 27.0999 7.3C27.0999 10.7794 29.9205 13.6 33.3999 13.6Z" fill="black"/>
<path d="M8.1999 28.3C11.6793 28.3 14.4999 25.4794 14.4999 22C14.4999 18.5206 11.6793 15.7 8.1999 15.7C4.72051 15.7 1.8999 18.5206 1.8999 22C1.8999 25.4794 4.72051 28.3 8.1999 28.3Z" fill="black"/>
<path d="M33.3999 43C36.8793 43 39.6999 40.1794 39.6999 36.7C39.6999 33.2206 36.8793 30.4 33.3999 30.4C29.9205 30.4 27.0999 33.2206 27.0999 36.7C27.0999 40.1794 29.9205 43 33.3999 43Z" fill="black"/>
<path d="M13.6389 25.171L27.9819 33.529M27.9609 10.471L13.6389 18.829M39.6999 7.3C39.6999 10.7794 36.8793 13.6 33.3999 13.6C29.9205 13.6 27.0999 10.7794 27.0999 7.3C27.0999 3.82061 29.9205 1 33.3999 1C36.8793 1 39.6999 3.82061 39.6999 7.3ZM14.4999 22C14.4999 25.4794 11.6793 28.3 8.1999 28.3C4.72051 28.3 1.8999 25.4794 1.8999 22C1.8999 18.5206 4.72051 15.7 8.1999 15.7C11.6793 15.7 14.4999 18.5206 14.4999 22ZM39.6999 36.7C39.6999 40.1794 36.8793 43 33.3999 43C29.9205 43 27.0999 40.1794 27.0999 36.7C27.0999 33.2206 29.9205 30.4 33.3999 30.4C36.8793 30.4 39.6999 33.2206 39.6999 36.7Z" stroke="black" stroke-width="2" stroke-linecap="round" stroke-linejoin="round"/>
</svg>
